Coordinates
version=1
nRows=36
nColumns=21
inDegrees=no
endheader
time	ra_wr_s_p	ra_wr_e_f	ra_cmc1_ad_ab	ra_cmc1_f_e	ra_mcp1_f_e	ra_ip1_f_e	ra_mcp2_e_f	ra_pip2_e_f	ra_dip2_e_f	ra_mcp3_e_f	ra_pip3_e_f	ra_dip3_e_f	ra_mcp4_e_f	ra_pip4_e_f	ra_dip4_e_f	ra_mcp5_e_f	ra_pip5_e_f	ra_dip5_e_f	ra_el_e_f	ra_wr_ad_ab
0.375000	0.000000	0.087300	0.758664	0.758664	-0.682771	-1.365542	1.365542	1.820723	1.365542	1.365542	1.820723	1.365542	1.365542	1.820723	1.365542	1.365542	1.820723	1.365542	2.094927	0.085000
0.376000	0.000000	0.087300	0.759220	0.759220	-0.683272	-1.366543	1.366543	1.822058	1.366543	1.366543	1.822058	1.366543	1.366543	1.822058	1.366543	1.366543	1.822058	1.366543	2.098542	0.085000
0.377000	0.000000	0.087300	0.759768	0.759768	-0.683765	-1.367530	1.367530	1.823373	1.367530	1.367530	1.823373	1.367530	1.367530	1.823373	1.367530	1.367530	1.823373	1.367530	2.102104	0.085000
0.378000	0.000000	0.087300	0.760308	0.760308	-0.684251	-1.368501	1.368501	1.824669	1.368501	1.368501	1.824669	1.368501	1.368501	1.824669	1.368501	1.368501	1.824669	1.368501	2.105613	0.085000
0.379000	0.000000	0.087300	0.760839	0.760839	-0.684729	-1.369459	1.369459	1.825945	1.369459	1.369459	1.825945	1.369459	1.369459	1.825945	1.369459	1.369459	1.825945	1.369459	2.109070	0.085000
0.380000	0.000000	0.087300	0.761363	0.761363	-0.685201	-1.370402	1.370402	1.827202	1.370402	1.370402	1.827202	1.370402	1.370402	1.827202	1.370402	1.370402	1.827202	1.370402	2.112475	0.085000
0.381000	0.000000	0.087300	0.761879	0.761879	-0.685665	-1.371331	1.371331	1.828441	1.371331	1.371331	1.828441	1.371331	1.371331	1.828441	1.371331	1.371331	1.828441	1.371331	2.115829	0.085000
0.382000	0.000000	0.087300	0.762388	0.762388	-0.686123	-1.372245	1.372245	1.829660	1.372245	1.372245	1.829660	1.372245	1.372245	1.829660	1.372245	1.372245	1.829660	1.372245	2.119133	0.085000
0.383000	0.000000	0.087300	0.762888	0.762888	-0.686573	-1.373146	1.373146	1.830862	1.373146	1.373146	1.830862	1.373146	1.373146	1.830862	1.373146	1.373146	1.830862	1.373146	2.122386	0.085000
0.384000	0.000000	0.087300	0.763381	0.763381	-0.687017	-1.374033	1.374033	1.832044	1.374033	1.374033	1.832044	1.374033	1.374033	1.832044	1.374033	1.374033	1.832044	1.374033	2.125589	0.085000
0.385000	0.000000	0.087300	0.763866	0.763866	-0.687453	-1.374907	1.374907	1.833209	1.374907	1.374907	1.833209	1.374907	1.374907	1.833209	1.374907	1.374907	1.833209	1.374907	2.128744	0.085000
0.386000	0.000000	0.087300	0.764344	0.764344	-0.687883	-1.375767	1.375767	1.834356	1.375767	1.375767	1.834356	1.375767	1.375767	1.834356	1.375767	1.375767	1.834356	1.375767	2.131849	0.085000
0.387000	0.000000	0.087300	0.764814	0.764814	-0.688307	-1.376613	1.376613	1.835485	1.376613	1.376613	1.835485	1.376613	1.376613	1.835485	1.376613	1.376613	1.835485	1.376613	2.134906	0.085000
0.388000	0.000000	0.087300	0.765277	0.765277	-0.688723	-1.377447	1.377447	1.836596	1.377447	1.377447	1.836596	1.377447	1.377447	1.836596	1.377447	1.377447	1.836596	1.377447	2.137916	0.085000
0.389000	0.000000	0.087300	0.765733	0.765733	-0.689134	-1.378267	1.378267	1.837690	1.378267	1.378267	1.837690	1.378267	1.378267	1.837690	1.378267	1.378267	1.837690	1.378267	2.140878	0.085000
0.390000	0.000000	0.087300	0.766182	0.766182	-0.689537	-1.379075	1.379075	1.838766	1.379075	1.379075	1.838766	1.379075	1.379075	1.838766	1.379075	1.379075	1.838766	1.379075	2.143794	0.085000
0.391000	0.000000	0.087300	0.766623	0.766623	-0.689935	-1.379869	1.379869	1.839826	1.379869	1.379869	1.839826	1.379869	1.379869	1.839826	1.379869	1.379869	1.839826	1.379869	2.146663	0.085000
0.392000	0.000000	0.087300	0.767058	0.767058	-0.690325	-1.380651	1.380651	1.840868	1.380651	1.380651	1.840868	1.380651	1.380651	1.840868	1.380651	1.380651	1.840868	1.380651	2.149486	0.085000
0.393000	0.000000	0.087300	0.767485	0.767485	-0.690710	-1.381420	1.381420	1.841894	1.381420	1.381420	1.841894	1.381420	1.381420	1.841894	1.381420	1.381420	1.841894	1.381420	2.152264	0.085000
0.394000	0.000000	0.087300	0.767906	0.767906	-0.691089	-1.382177	1.382177	1.842903	1.382177	1.382177	1.842903	1.382177	1.382177	1.842903	1.382177	1.382177	1.842903	1.382177	2.154997	0.085000
0.395000	0.000000	0.087300	0.768319	0.768319	-0.691461	-1.382922	1.382922	1.843896	1.382922	1.382922	1.843896	1.382922	1.382922	1.843896	1.382922	1.382922	1.843896	1.382922	2.157686	0.085000
0.396000	0.000000	0.087300	0.768726	0.768726	-0.691827	-1.383654	1.383654	1.844872	1.383654	1.383654	1.844872	1.383654	1.383654	1.844872	1.383654	1.383654	1.844872	1.383654	2.160331	0.085000
0.397000	0.000000	0.087300	0.769126	0.769126	-0.692187	-1.384375	1.384375	1.845833	1.384375	1.384375	1.845833	1.384375	1.384375	1.845833	1.384375	1.384375	1.845833	1.384375	2.162932	0.085000
0.398000	0.000000	0.087300	0.769520	0.769520	-0.692542	-1.385083	1.385083	1.846778	1.385083	1.385083	1.846778	1.385083	1.385083	1.846778	1.385083	1.385083	1.846778	1.385083	2.165491	0.085000
0.399000	0.000000	0.087300	0.769907	0.769907	-0.692890	-1.385780	1.385780	1.847707	1.385780	1.385780	1.847707	1.385780	1.385780	1.847707	1.385780	1.385780	1.847707	1.385780	2.168007	0.085000
0.400000	0.000000	0.087300	0.770288	0.770288	-0.693232	-1.386465	1.386465	1.848620	1.386465	1.386465	1.848620	1.386465	1.386465	1.848620	1.386465	1.386465	1.848620	1.386465	2.170481	0.085000
0.401000	0.000000	0.087300	0.770662	0.770662	-0.693569	-1.387138	1.387138	1.849518	1.387138	1.387138	1.849518	1.387138	1.387138	1.849518	1.387138	1.387138	1.849518	1.387138	2.172913	0.085000
0.402000	0.000000	0.087300	0.771030	0.771030	-0.693900	-1.387801	1.387801	1.850401	1.387801	1.387801	1.850401	1.387801	1.387801	1.850401	1.387801	1.387801	1.850401	1.387801	2.175304	0.085000
0.403000	0.000000	0.087300	0.771391	0.771391	-0.694226	-1.388451	1.388451	1.851269	1.388451	1.388451	1.851269	1.388451	1.388451	1.851269	1.388451	1.388451	1.851269	1.388451	2.177654	0.085000
0.404000	0.000000	0.087300	0.771747	0.771747	-0.694546	-1.389091	1.389091	1.852122	1.389091	1.389091	1.852122	1.389091	1.389091	1.852122	1.389091	1.389091	1.852122	1.389091	2.179964	0.085000
0.405000	0.000000	0.087300	0.772096	0.772096	-0.694860	-1.389720	1.389720	1.852960	1.389720	1.389720	1.852960	1.389720	1.389720	1.852960	1.389720	1.389720	1.852960	1.389720	2.182234	0.085000
0.406000	0.000000	0.087300	0.772439	0.772439	-0.695169	-1.390338	1.390338	1.853784	1.390338	1.390338	1.853784	1.390338	1.390338	1.853784	1.390338	1.390338	1.853784	1.390338	2.184465	0.085000
0.407000	0.000000	0.087300	0.772777	0.772777	-0.695472	-1.390945	1.390945	1.854593	1.390945	1.390945	1.854593	1.390945	1.390945	1.854593	1.390945	1.390945	1.854593	1.390945	2.186657	0.085000
0.408000	0.000000	0.087300	0.773108	0.773108	-0.695770	-1.391541	1.391541	1.855388	1.391541	1.391541	1.855388	1.391541	1.391541	1.855388	1.391541	1.391541	1.855388	1.391541	2.188810	0.085000
0.409000	0.000000	0.087300	0.773433	0.773433	-0.696063	-1.392127	1.392127	1.856169	1.392127	1.392127	1.856169	1.392127	1.392127	1.856169	1.392127	1.392127	1.856169	1.392127	2.190925	0.085000
0.410000	0.000000	0.087300	0.773753	0.773753	-0.696351	-1.392702	1.392702	1.856936	1.392702	1.392702	1.856936	1.392702	1.392702	1.856936	1.392702	1.392702	1.856936	1.392702	2.193003	0.085000
